<svg aria-hidden="true" style="position: absolute; width: 0; height: 0; overflow: hidden;" version="1.1" xmlns="http://www.w3.org/2000/svg" xmlns:xlink="http://www.w3.org/1999/xlink">
<defs>
<symbol id="icon-Icon" viewBox="0 0 43 32">
<path style="fill: var(--color1)" d="M42 16c0-1.105-0.895-2-2-2h-37.333c-1.105 0-2 0.895-2 2s0.895 2 2 2h37.333c1.105 0 2-0.895 2-2z"></path>
<path style="fill: var(--color1)" d="M42 2.667c0-1.105-0.895-2-2-2h-37.333c-1.105 0-2 0.895-2 2s0.895 2 2 2h37.333c1.105 0 2-0.895 2-2z"></path>
<path style="fill: var(--color1)" d="M42 29.333c0-1.105-0.895-2-2-2h-37.333c-1.105 0-2 0.895-2 2s0.895 2 2 2h37.333c1.105 0 2-0.895 2-2z"></path>
</symbol>
</defs>
</svg>
