<svg aria-hidden="true" style="position: absolute; width: 0; height: 0; overflow: hidden;" version="1.1" xmlns="http://www.w3.org/2000/svg" xmlns:xlink="http://www.w3.org/1999/xlink">
<defs>
<symbol id="icon-magnifier-glass" viewBox="0 0 32 32">
<path style="fill: var(--color1)" d="M4.832 19.999c1.846 1.849 4.305 2.959 6.913 3.121s5.185-0.636 7.246-2.242l7.091 7.091c0.251 0.243 0.588 0.377 0.938 0.374s0.684-0.143 0.931-0.39c0.247-0.247 0.387-0.582 0.39-0.931s-0.131-0.686-0.374-0.938l-7.091-7.091c1.678-2.153 2.471-4.865 2.218-7.583s-1.533-5.237-3.58-7.043c-2.047-1.806-4.705-2.764-7.433-2.678s-5.321 1.21-7.249 3.142c-0.996 0.996-1.787 2.178-2.326 3.479s-0.817 2.696-0.817 4.105c0 1.409 0.278 2.803 0.817 4.105s1.329 2.484 2.326 3.479zM6.717 6.719c1.318-1.318 3.052-2.138 4.908-2.321s3.716 0.283 5.266 1.319 2.693 2.577 3.234 4.36c0.541 1.784 0.447 3.7-0.266 5.422s-2.002 3.144-3.645 4.023c-1.644 0.879-3.542 1.161-5.37 0.797s-3.474-1.35-4.657-2.79c-1.183-1.441-1.829-3.247-1.83-5.111-0.004-1.059 0.203-2.109 0.608-3.087s1.001-1.867 1.752-2.614v0.003zM6.163 12.414c0-0.354 0.14-0.693 0.391-0.943s0.589-0.39 0.943-0.39c0.354 0 0.693 0.14 0.943 0.39s0.391 0.589 0.391 0.943c0.001 0.951 0.379 1.862 1.051 2.534s1.583 1.050 2.534 1.051c0.354 0 0.693 0.14 0.943 0.39s0.391 0.589 0.391 0.943c0 0.354-0.14 0.693-0.391 0.943s-0.589 0.391-0.943 0.391c-1.657-0.004-3.245-0.664-4.417-1.836s-1.832-2.76-1.835-4.417z"></path>
</symbol>
</defs>
</svg>
