<svg aria-hidden="true" style="position: absolute; width: 0; height: 0; overflow: hidden;" version="1.1" xmlns="http://www.w3.org/2000/svg" xmlns:xlink="http://www.w3.org/1999/xlink">
<defs>
<symbol id="icon-Vector-2" viewBox="0 0 32 32">
<path fill="#e8e8e8" style="fill: var(--color1)" d="M29.73 1.283h-27.45c-1.258 0-2.28 0.993-2.28 2.212v26.259c0 1.219 1.022 2.212 2.28 2.212h27.45c1.258 0 2.287-0.993 2.287-2.212v-26.259c0-1.219-1.029-2.212-2.287-2.212zM9.677 27.582h-4.745v-14.643h4.753v14.643h-0.007zM7.304 10.94c-1.522 0-2.751-1.185-2.751-2.637s1.229-2.637 2.751-2.637c1.515 0 2.751 1.185 2.751 2.637 0 1.459-1.229 2.637-2.751 2.637zM27.465 27.582h-4.745v-7.123c0-1.698-0.036-3.883-2.466-3.883-2.473 0-2.852 1.849-2.852 3.76v7.246h-4.745v-14.643h4.552v2h0.064c0.636-1.151 2.187-2.363 4.495-2.363 4.803 0 5.696 3.034 5.696 6.979v8.027z"></path>
</symbol>
<symbol id="icon-instagram" viewBox="0 0 30 32">
<path fill="#e8e8e8" style="fill: var(--color1)" d="M30.222 10.364c0-1.689-0.375-2.628-0.751-3.754-0.375-0.939-0.939-1.877-1.689-2.628-0.751-0.939-1.689-1.314-2.628-1.689s-2.065-0.563-3.754-0.751c-1.689 0-2.253 0-6.382 0-3.942 0-4.505 0-6.195 0s-2.628 0.375-3.754 0.751c-0.939 0.375-1.877 0.939-2.628 1.689-0.751 0.939-1.314 1.689-1.689 2.816-0.375 0.939-0.563 2.065-0.751 3.567 0 1.689 0 2.253 0 6.195 0 4.13 0 4.693 0 6.195 0 1.689 0.375 2.628 0.751 3.754 0.375 0.939 0.939 1.877 1.689 2.628 0.939 0.939 1.689 1.314 2.628 1.689s2.065 0.563 3.754 0.751c1.689 0 2.065 0 6.195 0s4.693 0 6.195 0c1.689 0 2.628-0.375 3.754-0.751 0.939-0.375 1.877-0.939 2.628-1.689 0.939-0.939 1.314-1.689 1.689-2.628s0.563-2.065 0.751-3.754 0-2.065 0-6.195c0-4.13 0.188-4.505 0.188-6.195zM15.017 24.443c-4.317 0-7.696-3.567-7.696-7.696 0-4.317 3.567-7.696 7.696-7.696 4.317 0 7.696 3.567 7.696 7.696 0.188 4.13-3.379 7.696-7.696 7.696zM23.089 10.364c-0.939 0-1.877-0.751-1.877-1.877 0-0.939 0.751-1.877 1.877-1.877 0.939 0 1.877 0.751 1.877 1.877s-0.751 1.877-1.877 1.877z"></path>
<path fill="#e8e8e8" style="fill: var(--color1)" d="M20.085 16.561c0 2.816-2.253 5.068-5.068 5.068s-5.068-2.253-5.068-5.068 2.44-4.881 5.068-4.881c2.816 0 5.068 2.253 5.068 4.881z"></path>
</symbol>
<symbol id="icon-youtube" viewBox="0 0 43 32">
<path fill="#e8e8e8" style="fill: var(--color1)" d="M17.042 22.3v-11.972c4.25 2 7.542 3.932 11.435 6.015-3.211 1.781-7.185 3.779-11.435 5.957zM40.727 4.374c-0.733-0.966-1.983-1.718-3.313-1.967-3.91-0.743-28.303-0.745-32.211 0-1.067 0.2-2.017 0.683-2.833 1.434-3.438 3.191-2.361 20.305-1.532 23.077 0.349 1.2 0.799 2.065 1.366 2.633 0.731 0.751 1.732 1.268 2.882 1.5 3.219 0.666 19.805 1.038 32.26 0.1 1.148-0.2 2.163-0.734 2.964-1.517 3.179-3.178 2.962-21.253 0.416-25.262z"></path>
</symbol>
<symbol id="icon-Vector-1" viewBox="0 0 36 32">
<path fill="#e8e8e8" style="fill: var(--color1)" d="M31.269 8.547c0.022 0.338 0.022 0.676 0.022 1.013 0 10.301-7.187 22.17-20.323 22.17-4.047 0-7.806-1.279-10.969-3.498 0.575 0.072 1.128 0.096 1.725 0.096 3.339 0 6.413-1.23 8.868-3.329-3.14-0.072-5.772-2.316-6.678-5.404 0.442 0.072 0.885 0.121 1.349 0.121 0.641 0 1.283-0.097 1.88-0.265-3.273-0.724-5.728-3.86-5.728-7.647v-0.096c0.951 0.579 2.057 0.941 3.229 0.989-1.924-1.399-3.184-3.788-3.184-6.489 0-1.447 0.354-2.774 0.973-3.932 3.516 4.728 8.801 7.816 14.728 8.154-0.111-0.579-0.177-1.182-0.177-1.785 0-4.294 3.184-7.792 7.143-7.792 2.057 0 3.914 0.941 5.219 2.461 1.614-0.338 3.162-0.989 4.533-1.882-0.531 1.809-1.659 3.329-3.14 4.294 1.437-0.169 2.831-0.603 4.113-1.206-0.973 1.544-2.189 2.919-3.582 4.029z"></path>
</symbol>
<symbol id="icon-Vector" viewBox="0 0 18 32">
<path fill="#e8e8e8" style="fill: var(--color1)" d="M15.79 17.426l0.876-5.607h-5.479v-3.638c0-1.534 0.765-3.029 3.219-3.029h2.491v-4.773c0 0-2.26-0.379-4.421-0.379-4.512 0-7.461 2.685-7.461 7.546v4.273h-5.015v5.607h5.015v13.553h6.173v-13.553h4.602z"></path>
</symbol>
</defs>
</svg>
